<svg width="170" height="41" viewBox="0 0 170 41" fill="none" xmlns="http://www.w3.org/2000/svg">
<path d="M71.1631 3.34315H2.86536V37.8908H71.1631V3.34315Z" fill="#00B5CA"/>
<path d="M165.958 3.34315H71.1631V37.8908H165.958V3.34315Z" fill="#949599"/>
<path d="M115.229 25.4556C112.403 25.4278 109.626 25.4001 106.762 25.3723C107.21 26.0105 107.706 26.4594 108.217 26.8623H114.617C114.564 27.427 114.352 27.8939 114.077 28.3161C113.8 28.7396 113.494 29.1667 113.115 29.4949C112.655 29.8918 112.131 30.2332 111.591 30.5156C110.429 31.1224 109.169 31.389 107.862 31.447C107.487 31.4638 107.11 31.5399 106.74 31.5181C106.157 31.4832 105.576 31.4108 104.999 31.3142C103.683 31.0935 102.505 30.5445 101.509 29.6614C100.589 28.847 99.9607 27.8504 99.7556 26.6065C99.4866 24.9754 99.7629 23.4504 100.581 22.0183C102.008 19.5197 104.186 18.0562 106.953 17.3999C107.689 17.2249 108.436 17.237 109.184 17.196C109.81 17.1622 110.408 17.2225 111.002 17.3637C112.046 17.611 112.915 18.1829 113.705 18.8863C114.272 19.3906 114.759 19.9637 115.022 20.6815C115.201 21.1701 115.33 21.6817 115.429 22.1932C115.616 23.1608 115.612 24.1321 115.358 25.0924C115.328 25.207 115.278 25.3156 115.229 25.4544V25.4556ZM109.236 22.887C109.283 22.0931 108.92 21.5779 108.184 21.3415C107.448 21.555 107.081 22.0533 107.071 22.887H109.235H109.236Z" fill="#201B1D"/>
<path d="M132.072 19.2989C133.467 18.7825 134.847 18.4857 136.264 18.4073C137.464 18.3409 138.669 18.306 139.871 18.3289C141.306 18.3566 142.601 18.8839 143.816 19.615C144.423 19.9806 144.889 20.5295 145.247 21.0978C145.571 21.6081 145.725 22.2656 145.806 22.8773C145.918 23.7207 145.913 24.5809 145.919 25.4351C145.931 27.1048 145.919 28.7746 145.913 30.4444C145.913 30.5759 145.895 30.7074 145.884 30.8691H139.737V26.1191C139.212 26.1191 138.733 26.089 138.26 26.1276C137.826 26.1638 137.591 26.5716 137.607 27.1447C137.73 27.3522 138.059 27.5705 138.591 27.7998V28.7565C138.591 29.1933 138.575 29.63 138.595 30.0655C138.633 30.9282 138.19 31.3046 137.455 31.3046C135.896 31.3046 134.329 31.2684 132.846 30.6989C131.884 30.3298 131.057 29.7724 130.622 28.7831C130.226 27.8818 130.233 26.9552 130.468 26.013C130.743 24.9102 131.467 24.19 132.432 23.6748C133.342 23.1886 134.318 22.8882 135.337 22.7506C135.841 22.6831 136.354 22.6782 136.862 22.6421C137.101 22.6252 137.34 22.5709 137.578 22.5793C138.522 22.6143 139.466 22.6686 140.409 22.7144C140.526 22.7205 140.643 22.7144 140.755 22.7144C140.833 22.18 140.606 21.6986 140.129 21.479C139.863 21.3559 139.56 21.2582 139.27 21.2498C138.262 21.222 137.246 21.1738 136.243 21.2546C134.853 21.3668 133.49 21.6612 132.186 22.1812C132.054 22.2331 131.92 22.2813 131.706 22.3622C131.835 21.2823 131.953 20.293 132.072 19.2953V19.2989Z" fill="#201B1D"/>
<path d="M118.98 22.4816H116.717V17.9392C117.484 17.9392 118.244 17.9151 119.075 17.9151V15.9026C121.394 15.455 123.652 15.0195 125.965 14.5731V18.4628H129.211V22.4756H126.117C126.1 22.6228 126.079 22.7229 126.079 22.823C126.077 23.4697 126.083 24.1164 126.082 24.7631C126.081 25.6981 126.798 26.4377 127.78 26.4159C128.331 26.4039 128.881 26.3737 129.468 26.3508C129.277 28.257 128.53 29.8725 126.941 31.0428C126.477 31.3854 125.952 31.529 125.376 31.5169C124.128 31.4928 122.895 31.3673 121.7 30.9801C121.138 30.7979 120.636 30.4987 120.18 30.1259C119.618 29.6662 119.331 29.0316 119.182 28.3535C119.058 27.7877 119.002 27.1989 118.989 26.6186C118.96 25.4314 118.981 24.2419 118.981 23.0535V22.478L118.98 22.4816Z" fill="#201B1D"/>
<path d="M148.321 13.5464H153.424C154.21 14.298 154.982 15.034 155.727 15.7446C155.727 20.5391 155.917 25.2601 155.917 29.9509V31.3577H148.32V13.5452L148.321 13.5464Z" fill="#201B1D"/>
<path d="M97.1507 13.6417H87.728C87.3951 15.0123 87.0741 16.372 86.7339 17.7256C86.3925 19.0853 86.0317 20.4402 85.6794 21.7975C85.642 21.7951 85.6034 21.7927 85.566 21.7891L83.5584 13.6055H83.4969C83.4607 13.6055 83.3956 13.6055 83.3075 13.6055C81.9381 13.6164 74.7077 13.7081 73.6243 13.7177V30.7327H79.3768C79.3876 30.7303 79.4009 30.7291 79.4081 30.7267V20.2798C79.828 21.7372 80.1924 23.2007 80.5712 24.6593C81.0586 26.5366 81.5569 28.4102 82.054 30.2851C82.095 30.442 82.1517 30.594 82.1999 30.7339H89.1348C89.1433 30.7315 89.1541 30.7303 89.1613 30.7279C89.9178 27.7636 90.6791 24.7836 91.4392 21.8048C91.4561 21.8084 91.473 21.812 91.4899 21.8168V24.7956C91.4899 25.803 91.4887 26.8117 91.4899 27.8203C91.4911 28.7867 91.4826 29.7543 91.4959 30.7351H97.2387V13.6441H97.1507V13.6417Z" fill="#201B1D"/>
<path d="M116.757 23.9366C113.932 23.9089 111.155 23.8811 108.29 23.8534C108.739 24.4916 109.235 24.9404 109.745 25.3434H116.146C116.093 25.908 115.88 26.3749 115.605 26.7972C115.329 27.2206 115.023 27.6477 114.644 27.9759C114.184 28.3728 113.659 28.7143 113.12 28.9966C111.958 29.6034 110.697 29.8701 109.391 29.928C109.015 29.9449 108.639 30.0209 108.269 29.9992C107.686 29.9642 107.104 29.8918 106.528 29.7953C105.211 29.5745 104.034 29.0255 103.037 28.1424C102.118 27.328 101.489 26.3315 101.284 25.0876C101.015 23.4564 101.292 21.9314 102.11 20.4993C103.537 18.0007 105.715 16.5372 108.482 15.8809C109.218 15.706 109.965 15.718 110.713 15.677C111.339 15.6432 111.936 15.7036 112.531 15.8447C113.575 16.092 114.443 16.6639 115.234 17.3673C115.801 17.8716 116.288 18.4447 116.551 19.1625C116.73 19.6512 116.859 20.1627 116.958 20.6743C117.145 21.6419 117.141 22.6131 116.887 23.5735C116.856 23.6881 116.807 23.7966 116.757 23.9354V23.9366ZM110.765 21.368C110.812 20.5741 110.449 20.059 109.713 19.8225C108.977 20.036 108.61 20.5343 108.599 21.368H110.764H110.765Z" fill="url(#paint0_linear_47_513)"/>
<path d="M133.435 17.7799C134.829 17.2636 136.209 16.9668 137.626 16.8883C138.826 16.822 140.032 16.787 141.233 16.8099C142.668 16.8377 143.964 17.3649 145.178 18.096C145.785 18.4616 146.251 19.0105 146.609 19.5788C146.933 20.0891 147.087 20.7467 147.168 21.3584C147.28 22.2017 147.275 23.0619 147.281 23.9161C147.293 25.5859 147.281 27.2556 147.275 28.9254C147.275 29.0569 147.257 29.1884 147.246 29.3501H141.099V24.6002C140.575 24.6002 140.096 24.57 139.623 24.6086C139.188 24.6448 138.953 25.0526 138.969 25.6257C139.093 25.8332 139.421 26.0516 139.953 26.2808V27.2375C139.953 27.6743 139.938 28.111 139.957 28.5466C139.995 29.4092 139.553 29.7856 138.817 29.7856C137.258 29.7856 135.691 29.7494 134.208 29.18C133.246 28.8108 132.419 28.2534 131.984 27.2641C131.589 26.3628 131.595 25.4363 131.83 24.494C132.105 23.3913 132.829 22.671 133.794 22.1558C134.704 21.6696 135.68 21.3692 136.699 21.2317C137.204 21.1641 137.716 21.1593 138.224 21.1231C138.463 21.1062 138.702 21.0519 138.94 21.0604C139.884 21.0953 140.828 21.1496 141.771 21.1955C141.888 21.2015 142.005 21.1955 142.118 21.1955C142.195 20.661 141.968 20.1796 141.491 19.96C141.225 19.837 140.922 19.7393 140.632 19.7308C139.624 19.7031 138.608 19.6548 137.605 19.7356C136.216 19.8478 134.852 20.1422 133.548 20.6622C133.416 20.7141 133.283 20.7624 133.068 20.8432C133.197 19.7634 133.315 18.7741 133.435 17.7763V17.7799Z" fill="url(#paint1_linear_47_513)"/>
<path d="M120.557 21.0688H118.294V17.0753H120.652V14.4911C122.971 14.0435 125.229 13.6079 127.542 13.1615V17.0512H130.788V21.064H127.694C127.677 21.2112 127.656 21.3113 127.656 21.4114C127.654 22.0581 127.66 22.7048 127.659 23.3515C127.658 24.2865 128.375 25.0261 129.357 25.0043C129.908 24.9923 130.458 24.9621 131.045 24.9392C130.854 26.8454 130.107 28.4609 128.518 29.6312C128.054 29.9739 127.529 30.1174 126.953 30.1054C125.705 30.0812 124.472 29.9558 123.277 29.5685C122.715 29.3863 122.213 29.0871 121.757 28.7143C121.195 28.2546 120.908 27.62 120.759 26.942C120.635 26.3761 120.58 25.7874 120.566 25.207C120.537 24.0199 120.558 22.8303 120.558 21.6419V21.0664L120.557 21.0688Z" fill="url(#paint2_linear_47_513)"/>
<path d="M150.256 12.0274H155.359C156.145 12.7791 156.917 13.515 157.662 14.2256V28.432C157.205 28.8989 156.764 29.3477 156.282 29.8387H150.255V12.0262L150.256 12.0274Z" fill="url(#paint3_linear_47_513)"/>
<path d="M85.2416 12.0853H85.4937C84.1244 12.0962 76.6406 12.0745 75.5583 12.0853V29.2138H81.3109C81.3217 29.2114 81.335 29.2101 81.3422 29.2077V18.7608C81.7621 20.2182 82.1264 21.6817 82.5053 23.1403C82.9927 25.0176 83.491 26.8913 83.988 28.7662C84.0291 28.923 84.0858 29.075 84.134 29.215H91.0689C91.0773 29.2126 91.0882 29.2114 91.0954 29.2089C91.8519 26.2446 92.6132 23.2646 93.3733 20.2858C93.3902 20.2894 93.4071 20.293 93.4239 20.2979V23.2767C93.4239 24.2841 93.4227 25.2927 93.4239 26.3013C93.4252 27.2677 93.4167 28.2353 93.43 29.2162H99.1728V12.1251H89.6621C89.3291 13.4957 89.0082 14.8554 88.668 16.2091C88.3266 17.5688 87.9658 18.9237 87.6135 20.281C87.5761 20.2786 87.5375 20.2761 87.5001 20.2725L85.4925 12.089" fill="url(#paint4_linear_47_513)"/>
<path d="M41.5235 28.584C41.4571 29.5287 41.0349 30.0414 40.1952 30.1898C38.7426 30.448 37.2972 30.454 35.8868 29.9509C34.5476 29.4732 33.7598 28.5164 33.5607 27.1205C33.4835 26.5788 33.4919 26.0118 33.5511 25.4664C33.6428 24.6352 34.1748 24.091 34.9108 23.7496C35.6902 23.3889 36.5335 23.2308 37.3599 23.0173C38.944 22.6095 40.5185 22.1703 41.9663 21.3801C42.1762 21.2655 42.3825 21.134 42.5659 20.9819C42.999 20.6212 43.3682 20.2134 43.3875 19.5848C43.285 19.0359 42.917 18.797 42.3596 18.7138C41.848 18.6377 41.3606 18.6209 40.8358 18.6643C40.65 18.68 40.4968 18.6908 40.2941 18.7077C39.1045 18.8054 37.9004 18.9394 36.7434 19.212C36.18 19.3447 35.6069 19.4364 34.9578 19.5631C35.0181 18.867 35.0724 18.2481 35.1279 17.6062C35.4513 17.3516 35.8554 17.3263 36.2246 17.2563C37.1222 17.0874 38.0271 16.9463 38.9332 16.8401C39.6329 16.758 40.3436 16.6784 41.0433 16.7182C42.1472 16.781 43.2669 16.822 44.3141 17.2467C45.003 17.5266 45.6714 17.8451 45.9609 18.6064C46.0225 18.7705 46.0683 18.9526 46.0683 19.1252C46.0743 22.6758 46.0731 26.2253 46.0719 29.776C46.0719 29.893 46.0526 30.0101 46.0406 30.1597H43.5057C43.3248 30.0294 43.297 29.8279 43.3356 29.6372C43.4261 29.1896 43.326 28.7481 43.3272 28.3041C43.3308 26.9347 43.3272 25.5666 43.3272 24.1972V23.1126C43.0895 22.8496 42.8374 22.8472 42.584 22.934C41.661 23.2465 40.7296 23.5361 39.826 23.8968C38.9645 24.2407 38.1224 24.6376 37.2972 25.0599C36.8267 25.2999 36.3839 25.6004 36.0316 26.025C35.7239 26.3954 35.707 26.7972 35.806 27.2122C36.005 28.0483 36.7072 28.6129 37.5699 28.6142C38.7739 28.6154 39.978 28.5804 41.1821 28.5635C41.2846 28.5623 41.3872 28.5755 41.5211 28.5852L41.5235 28.584Z" fill="#F9F9F9"/>
<path d="M33.7622 23.5095H23.5059C23.419 24.0138 23.5735 24.4482 23.6772 24.8728C23.9041 25.7922 24.3649 26.6066 25.0478 27.2617C25.8284 28.0121 26.7501 28.4633 27.877 28.4452C29.4285 28.4211 30.9813 28.438 32.534 28.4392C32.6945 28.4392 32.8549 28.4525 33.0456 28.4621C32.9684 28.8024 32.9261 29.1004 32.8248 29.3778C32.7741 29.5154 32.6354 29.6698 32.5002 29.7181C31.6678 30.0161 30.8353 30.331 29.9365 30.372C29.1426 30.4082 28.3427 30.5035 27.5537 30.4516C26.1155 30.3587 24.7438 30.0137 23.5699 29.0979C22.5323 28.2884 21.9013 27.2291 21.549 25.9828C21.3198 25.1696 21.2052 24.3347 21.2015 23.4974C21.1919 21.3982 21.7903 19.5257 23.4456 18.1189C24.2974 17.3963 25.2927 16.9378 26.4099 16.8063C27.0638 16.7303 27.731 16.67 28.3837 16.7134C30.1934 16.8328 31.7426 17.4819 32.7476 19.089C33.2555 19.9009 33.5511 20.7937 33.6705 21.742C33.7321 22.2318 33.761 22.7253 33.7996 23.2188C33.8057 23.2887 33.7827 23.3623 33.7622 23.5095ZM31.1249 21.8216C31.1249 21.6177 31.1514 21.45 31.12 21.2944C30.8775 20.0698 30.1693 19.2036 29.0135 18.7511C28.0773 18.3844 27.1048 18.417 26.1626 18.7475C24.9513 19.1722 24.1924 20.2122 24.015 21.4561C23.9994 21.5659 24.038 21.6841 24.0537 21.8216H31.1236H31.1249Z" fill="#F9F9F9"/>
<path d="M46.8586 30.0643H49.5237C49.5237 29.893 49.5237 29.741 49.5237 29.5914C49.5237 27.6212 49.5201 25.6498 49.5261 23.6796C49.5285 22.7434 49.6926 21.8385 50.0449 20.9614C50.5577 19.685 51.8474 18.7524 53.2722 18.7958C54.3496 18.8284 55.1073 19.4063 55.456 20.3003C55.6888 20.8975 55.7998 21.5092 55.801 22.1438C55.8046 24.6412 55.801 27.1386 55.8034 29.636C55.8034 29.782 55.8155 29.9268 55.8239 30.0655H58.5554C58.5554 29.9208 58.5554 29.7663 58.5554 29.6107C58.5554 27.6104 58.5615 25.6088 58.553 23.6085C58.5494 22.8375 58.6604 22.0979 58.8944 21.3547C59.3807 19.8141 60.7174 18.6969 62.4415 18.8079C63.4803 18.8754 64.0775 19.358 64.472 20.322C64.7181 20.9228 64.7869 21.5659 64.7845 22.2186C64.7773 24.6702 64.7809 27.1229 64.7833 29.5745C64.7833 29.7314 64.8026 29.8894 64.8195 30.0655H67.4906C67.4991 29.9316 67.5087 29.8218 67.5087 29.7133C67.5087 26.9456 67.5063 24.1767 67.5039 21.409C67.5039 20.836 67.4291 20.2737 67.2457 19.726C66.8765 18.6221 66.2166 17.7811 65.1356 17.2817C64.2947 16.8932 63.4151 16.7882 62.503 16.7967C61.188 16.8087 60.0237 17.225 59.0296 18.0731C58.6592 18.3892 58.3612 18.7873 58.0282 19.1505C57.9848 19.0805 57.9281 18.9925 57.875 18.902C57.2017 17.7558 56.1992 17.0802 54.8925 16.8763C54.4498 16.8075 53.9937 16.7979 53.5437 16.8063C52.0175 16.8341 50.6904 17.3227 49.6878 18.5292C49.6166 18.6148 49.5261 18.6836 49.3644 18.8356C49.35 18.1926 49.3367 17.6508 49.3234 17.0669C48.6007 17.0669 47.9408 17.0657 47.2808 17.0669C47.1481 17.0669 47.0154 17.0814 46.8115 17.0922C46.7934 17.3191 46.7669 17.494 46.7669 17.6689C46.7645 21.5647 46.7633 25.4616 46.7705 29.3585C46.7705 29.5914 46.8212 29.8255 46.8586 30.0655V30.0643Z" fill="#F9F9F9"/>
<path d="M10.0259 12.3182V14.4814H15.7398V22.2294C15.7398 23.5083 15.7386 24.7872 15.7398 26.066C15.7422 27.3389 15.7301 28.6105 15.7518 29.8942H18.23V22.1908C18.23 20.912 18.2251 19.6331 18.2312 18.3542C18.2372 17.0814 18.2034 15.8073 18.2529 14.4814C18.4737 14.4814 18.6353 14.4814 18.797 14.4814C19.1879 14.4814 19.58 14.4814 19.9709 14.4814H23.9451C24.0778 14.4838 24.2117 14.4874 24.3456 14.4874V12.3194H10.0271L10.0259 12.3182Z" fill="#F9F9F9"/>
<path d="M71.1632 35.3367L11.0128 35.6672C6.44986 35.6672 5.47743 31.184 5.47743 29.8894V10.3178C5.47743 7.87351 7.86265 5.42917 9.53845 5.42917L71.1632 5.21804V0H7.99898C3.58205 0 0 3.54947 0 7.92659V32.3386C0 36.7169 3.58084 40.2652 7.99898 40.2652H71.1644V35.3355L71.1632 35.3367Z" fill="url(#paint5_linear_47_513)"/>
<path d="M162.043 0H71.1631V5.21683L158.946 4.9128C162.345 5.21804 164.418 7.68891 164.418 10.7835L164.54 29.817C164.54 31.8487 162.864 34.8372 160.978 34.8372L71.1631 35.3355V40.2664H162.043C166.421 40.2664 169.969 36.7169 169.969 32.3398V7.92659C169.969 3.54827 166.42 0 162.043 0Z" fill="#00B5CA"/>
<defs>
<linearGradient id="paint0_linear_47_513" x1="104.247" y1="17.8668" x2="114.505" y2="28.1255" gradientUnits="userSpaceOnUse">
<stop stop-color="#A4A5AA"/>
<stop offset="0.49" stop-color="#FCFCFC"/>
<stop offset="1" stop-color="#A8AAAE"/>
</linearGradient>
<linearGradient id="paint1_linear_47_513" x1="133.518" y1="17.6955" x2="146.21" y2="30.3865" gradientUnits="userSpaceOnUse">
<stop stop-color="#A4A5AA"/>
<stop offset="0.49" stop-color="#FCFCFC"/>
<stop offset="1" stop-color="#A8AAAE"/>
</linearGradient>
<linearGradient id="paint2_linear_47_513" x1="119.422" y1="15.7205" x2="130.978" y2="27.2762" gradientUnits="userSpaceOnUse">
<stop stop-color="#A4A5AA"/>
<stop offset="0.49" stop-color="#FCFCFC"/>
<stop offset="1" stop-color="#A8AAAE"/>
</linearGradient>
<linearGradient id="paint3_linear_47_513" x1="147.106" y1="15.1788" x2="159.025" y2="27.0976" gradientUnits="userSpaceOnUse">
<stop stop-color="#A4A5AA"/>
<stop offset="0.49" stop-color="#FCFCFC"/>
<stop offset="1" stop-color="#A8AAAE"/>
</linearGradient>
<linearGradient id="paint4_linear_47_513" x1="77.1714" y1="10.4723" x2="97.5429" y2="30.8449" gradientUnits="userSpaceOnUse">
<stop stop-color="#A4A5AA"/>
<stop offset="0.49" stop-color="#FCFCFC"/>
<stop offset="1" stop-color="#A8AAAE"/>
</linearGradient>
<linearGradient id="paint5_linear_47_513" x1="5.89487" y1="1.30783" x2="74.1842" y2="40.7357" gradientUnits="userSpaceOnUse">
<stop stop-color="#A4A5AA"/>
<stop offset="0.49" stop-color="#FCFCFC"/>
<stop offset="1" stop-color="#A8AAAE"/>
</linearGradient>
</defs>
</svg>
